<?xml version="1.0" encoding="UTF-8"?>
<svg version="1.1" xmlns="http://www.w3.org/2000/svg" width="24" height="24">
<path d="M0 0 C0.804375 0.185625 1.60875 0.37125 2.4375 0.5625 C6.14899111 1.01829715 9.18448277 0.72239564 12.8515625 0.15625 C15.14850044 -0.01080003 16.79088029 0.41362872 19 1 C21.68149993 0.61432869 21.68149993 0.61432869 24 0 C24 1.32 24 2.64 24 4 C23.34 4.66 22.68 5.32 22 6 C22.27539746 8.34087842 22.6186926 10.67402489 23 13 C23.03703237 15.33303944 23.04760913 17.66715242 23 20 C21.88625 20.28875 20.7725 20.5775 19.625 20.875 C15.99708908 21.69241329 15.99708908 21.69241329 14 24 C10.55834679 23.64700993 8.93127462 22.95418308 6 21 C4.34450469 20.61500109 2.6777567 20.27206865 1 20 C0.97296619 18.06257659 0.95358875 16.12504521 0.9375 14.1875 C0.92589844 13.10855469 0.91429688 12.02960937 0.90234375 10.91796875 C1 8 1 8 2 5 C1.34 4.67 0.68 4.34 0 4 C0 2.68 0 1.36 0 0 Z " fill="#000000" transform="translate(0,0)"/>
</svg>
