<?xml version="1.0" encoding="UTF-8"?>
<svg version="1.1" xmlns="http://www.w3.org/2000/svg" width="128" height="128">
<path d="M0 0 C4.10458713 0.37227651 6.73401143 2.00356522 10.109375 4.1796875 C16.44917579 7.99642118 22.28681385 11.21992025 29.9140625 9.84375 C33.75037371 8.7593216 37.3240574 7.3199106 40.984375 5.7421875 C55.89046672 0.0922979 71.13652522 2.32487123 85.53125 8.18359375 C92.86729768 11.0916679 98.26225778 10.31467055 105.359375 7.3046875 C108.47265148 5.53408511 111.50083758 3.68803017 114.5 1.73046875 C117.7347521 0.11751176 119.79100086 -0.05111859 123.359375 0.3046875 C124.359375 1.3046875 124.359375 1.3046875 124.671875 4.8671875 C124.54345787 11.40478703 121.80248739 16.22603968 117.171875 20.7421875 C108.18129411 28.0690908 97.01768568 33.077061 86.00390625 36.421875 C76.1071095 39.72568012 68.70449245 46.22908347 62.359375 54.3046875 C59.4562385 53.96401332 57.79725058 53.72548995 55.65625 51.66796875 C55.14578125 50.99121094 54.6353125 50.31445312 54.109375 49.6171875 C47.78754163 41.96804279 39.21961996 37.59143582 29.91015625 34.48828125 C16.96244959 30.17237903 3.9258404 23.98549689 -3.078125 11.8046875 C-3.8870164 8.20961461 -3.82486959 4.98957926 -3.640625 1.3046875 C-2.640625 0.3046875 -2.640625 0.3046875 0 0 Z " fill="#000000" transform="translate(3.640625,-0.3046875)"/>
<path d="M0 0 C2.63030631 1.21313918 4.12688093 2.13050609 6.1875 4.25 C14.40347408 12.28339688 23.13549214 16.1173267 34.625 16.25 C38.3412176 16.1755881 41.89822643 15.91980046 45.5625 15.3125 C49.64610079 14.94126356 49.9378567 15.60770055 53 18 C55.72333489 18.44821553 58.27666511 18.44821553 61 18 C61.66 17.484375 62.32 16.96875 63 16.4375 C65.69321092 14.50175465 67.46331524 15.14387106 70.61328125 15.65625 C82.88569319 17.42379869 93.94914211 15.18611308 104.125 8 C106.70189528 6.04247717 108.74347147 4.34362892 110.6796875 1.75 C111.33324219 0.88375 111.33324219 0.88375 112 0 C112.66 0 113.32 0 114 0 C114.14505175 3.43705705 114.23398014 6.87333033 114.3125 10.3125 C114.35439453 11.28896484 114.39628906 12.26542969 114.43945312 13.27148438 C114.48512835 15.92978223 114.45832253 18.38068384 114 21 C110.69160223 24.30839777 107.03575909 24.4484722 102.5 24.875 C85.11436396 27.09366903 72.14144544 35.85855456 60 48 C57.13671875 48.37890625 57.13671875 48.37890625 54 48 C51.83203125 46.27734375 51.83203125 46.27734375 49.8125 43.9375 C37.69091254 31.02537423 21.58179857 25.97868537 4.5390625 23.5625 C2 23 2 23 0 21 C-0.22705078 18.84521484 -0.22705078 18.84521484 -0.1953125 16.2109375 C-0.18886719 15.26992187 -0.18242188 14.32890625 -0.17578125 13.359375 C-0.15902344 12.37453125 -0.14226563 11.3896875 -0.125 10.375 C-0.11597656 9.38242188 -0.10695313 8.38984375 -0.09765625 7.3671875 C-0.07404116 4.91121866 -0.04110799 2.45572832 0 0 Z " fill="#000000" transform="translate(7,80)"/>
<path d="M0 0 C3.63 1.65 7.26 3.3 11 5 C9.44012601 8.89968499 8.40855039 10.85841254 6 14 C4.08457023 19.7462893 3.83368057 26.71024698 5.87109375 32.45703125 C8.54057442 37.03453417 12.1140824 40.83558417 17 43 C18.84840631 43.27174532 20.70382436 43.4983539 22.5625 43.6875 C26.18852487 44.18195794 27.5618156 44.51228901 30.0390625 47.26953125 C34 53.83042062 34 53.83042062 34 57 C21.68549217 57.51429499 12.30541705 57.49105991 2.25 49.5 C-4.34049175 43.27175159 -8.33429484 34.90029007 -9.203125 25.89453125 C-9.41592811 16.44252643 -6.52487365 8.61160651 -1 1 C-0.67 0.67 -0.34 0.34 0 0 Z " fill="#000000" transform="translate(16,33)"/>
<path d="M0 0 C5.66552734 4.87864854 9.22827985 11.47572858 10 19 C10.52193896 29.43877913 8.28394493 37.52028581 2 46 C-2.83671062 51.28979826 -10.52521407 56.67307365 -17.90112305 57.11352539 C-18.59761963 57.10828857 -19.29411621 57.10305176 -20.01171875 57.09765625 C-21.14770508 57.09282227 -21.14770508 57.09282227 -22.30664062 57.08789062 C-23.48516602 57.07532227 -23.48516602 57.07532227 -24.6875 57.0625 C-25.48478516 57.05798828 -26.28207031 57.05347656 -27.10351562 57.04882812 C-29.06904257 57.0370585 -31.03453085 57.01912348 -33 57 C-32.54947266 55.87658203 -32.54947266 55.87658203 -32.08984375 54.73046875 C-31.23751458 52.5950634 -30.39759623 50.45470338 -29.5625 48.3125 C-28.11269394 45.78212688 -27.42311975 45.11855529 -24.57421875 44.3203125 C-22.65866462 44.06066616 -20.74192601 43.80964015 -18.82421875 43.56640625 C-13.49157879 42.49692797 -9.93240602 39.45245863 -6.62109375 35.25 C-3.22570109 29.5712945 -3.23855139 23.43605372 -4 17 C-5.23373423 13.71004205 -6.60029982 11.53293358 -8.6875 8.75 C-10 7 -10 7 -10 5 C-6.7 3.35 -3.4 1.7 0 0 Z " fill="#000000" transform="translate(111,33)"/>
<path d="M0 0 C2.93980003 2.56661298 4.75752553 5.27257659 6 9 C6.36826224 14.61599916 6.21556007 18.17665989 3 23 C-0.95515636 27.23766753 -3.94959876 28.80655338 -9.76171875 29.12890625 C-14.81654183 28.83779078 -18.50487313 26.84649489 -21.875 23.1875 C-24.13959454 19.79060819 -24.83795607 18.04097062 -25 14 C-20.10315762 5.81809 -10.08673314 -3.68553711 0 0 Z M-12 8 C-13.50662097 11.01324195 -13.17770373 13.68286377 -13 17 C-12.34 17.66 -11.68 18.32 -11 19 C-8.21762345 18.59471099 -8.21762345 18.59471099 -6 17 C-5.69476038 12.34911285 -5.69476038 12.34911285 -7 8 C-8.65 8 -10.3 8 -12 8 Z " fill="#000000" transform="translate(96,43)"/>
<path d="M0 0 C6.35419657 3.26144603 12.21472821 7.87205187 16 14 C16.43435436 18.25667272 14.83562634 20.49543544 12.3125 23.75 C8.86163208 27.44619028 5.99300149 28.86843949 0.8671875 29.09375 C-4.53176368 28.87413165 -7.76685749 27.37039615 -11.625 23.6015625 C-14.89782142 19.78946937 -15.45237682 16.04873848 -15.3203125 11.05859375 C-14.62431071 6.58550908 -12.19803266 3.32196707 -9.1875 0 C-5.69200189 -1.59794199 -3.68619826 -1.02730115 0 0 Z M-2 8 C-3.50662097 11.01324195 -3.17770373 13.68286377 -3 17 C-2.34 17.66 -1.68 18.32 -1 19 C1.78237655 18.59471099 1.78237655 18.59471099 4 17 C4.30523962 12.34911285 4.30523962 12.34911285 3 8 C1.35 8 -0.3 8 -2 8 Z " fill="#000000" transform="translate(41,43)"/>
<path d="M0 0 C0.66 0 1.32 0 2 0 C2.268125 0.65226562 2.53625 1.30453125 2.8125 1.9765625 C5.75412698 8.53716478 8.86418079 12.25456197 15 16 C13.66962291 21.00192055 11.62885075 24.09371243 8.1875 27.9375 C7.33542969 28.91589844 6.48335937 29.89429687 5.60546875 30.90234375 C3 33 3 33 0.46875 33.109375 C-2.698864 31.68595352 -4.39527658 29.91606107 -6.6875 27.3125 C-7.45449219 26.46300781 -8.22148438 25.61351563 -9.01171875 24.73828125 C-11.08926513 21.87706316 -12.07111989 19.39264766 -13 16 C-12.48050781 15.68289062 -11.96101563 15.36578125 -11.42578125 15.0390625 C-5.39491567 11.00362194 -2.73433939 6.65180641 0 0 Z " fill="#000000" transform="translate(63,60)"/>
</svg>
