<?xml version="1.0" encoding="UTF-8"?>
<svg version="1.1" xmlns="http://www.w3.org/2000/svg" width="64" height="64">
<path d="M0 0 C4.3544257 -0.52780918 6.58553162 0.88085351 10.25390625 3.09765625 C13.02367743 4.52901451 14.93195877 4.42952577 18 4 C19.42328424 3.51916073 20.83951388 3.01717825 22.25 2.5 C29.95805236 -0.21592449 36.43049171 0.54951363 43.9765625 3.31640625 C46.86042397 4.29068377 48.98738039 4.45844212 52 4 C53.2098363 3.37478258 54.39695168 2.7043421 55.5625 2 C58.90043109 0.057931 60.26628323 -0.45257173 64 0 C64.46848378 3.93526374 64.20917148 5.6693741 62.0625 9.0625 C57.37746055 14.10286548 51.08311858 16.64041782 44.75 19 C40.49189074 20.61242159 38.14353997 22.67682917 35 26 C32.5 27.125 32.5 27.125 30 27 C27.625 24.8125 27.625 24.8125 25 22 C21.39864511 19.68969686 18.10177705 17.98726599 14.0625 16.625 C8.29691483 14.57950974 3.39345679 11.09018519 0 6 C-0.125 2.8125 -0.125 2.8125 0 0 Z " fill="#000000" transform="translate(0,0)"/>
<path d="M0 0 C2.52829612 1.21773226 4.71773465 2.48337231 7.0625 4.0625 C11.3161868 6.86812321 14.1368052 7.09615797 19.125 7 C21.08297305 6.96243697 23.04222483 6.95324716 25 7 C25.33 7.33 25.66 7.66 26 8 C29.36629251 8.14636054 31.78419562 8.07193479 35 7 C36.56345111 7.030547 38.12638176 7.0968228 39.6875 7.1875 C44.93937262 7.24892541 48.69040282 5.97591122 53 3 C53.52722656 2.45988281 54.05445313 1.91976562 54.59765625 1.36328125 C56 0 56 0 58 0 C58 3.63 58 7.26 58 11 C57.071875 11.2475 56.14375 11.495 55.1875 11.75 C47.13126536 14.09837609 40.3233549 16.46121853 33.69921875 21.71484375 C31.31785946 23.51591779 30.02034146 24.30977861 27 24 C25.19637151 22.65298631 23.58891981 21.16255278 21.94140625 19.62890625 C16.5064 15.0687501 9.82496548 13.52665325 2.96875 12.39453125 C1 12 1 12 0 11 C-0.07226502 9.14712498 -0.0838122 7.29166122 -0.0625 5.4375 C-0.05347656 4.42558594 -0.04445312 3.41367187 -0.03515625 2.37109375 C-0.02355469 1.58863281 -0.01195312 0.80617187 0 0 Z " fill="#000000" transform="translate(3,40)"/>
<path d="M0 0 C1.98 0.99 3.96 1.98 6 3 C5.505 3.86625 5.01 4.7325 4.5 5.625 C2.50699596 10.10925909 2.28730808 13.00446263 3.9375 17.625 C6.57654496 20.66390026 9.28337714 21.49333445 12.96875 22.953125 C15 24 15 24 16.5625 26.75 C16.706875 27.4925 16.85125 28.235 17 29 C10.06067519 29.50264727 5.62592528 29.27570321 0 25 C-4.02074504 20.45020956 -5.28203005 15.97299347 -5 10 C-4.07170626 6.1210583 -2.86930274 2.86930274 0 0 Z " fill="#000000" transform="translate(8,16)"/>
<path d="M0 0 C3.50945088 3.0415241 5.05274589 5.43595748 6 10 C6.18837452 15.73495747 5.09156574 20.08443939 1.4375 24.55859375 C-2.4507282 28.45738779 -6.05706807 29.15749756 -11.375 29.1875 C-12.91719346 29.13973295 -14.45925884 29.08221346 -16 29 C-15.06863779 25.83019338 -14.5423595 24.33805854 -11.6875 22.55859375 C-10.800625 22.18863281 -9.91375 21.81867187 -9 21.4375 C-5.28004064 19.93996081 -5.28004064 19.93996081 -2.70703125 17.02734375 C-1.21500773 12.74911057 -1.67875114 9.72280993 -3.5 5.625 C-3.995 4.75875 -4.49 3.8925 -5 3 C-3.35 2.01 -1.7 1.02 0 0 Z " fill="#000000" transform="translate(55,16)"/>
<path d="M0 0 C1.8125 1 1.8125 1 3 3 C3.75471698 9.79245283 3.75471698 9.79245283 1.4375 13.5 C-1.9238388 15.56851618 -4.11959911 15.48505011 -8 15 C-10.375 13.8125 -10.375 13.8125 -12 12 C-12.38128351 10.34364503 -12.72013052 8.67647307 -13 7 C-11.78521149 5.81836949 -10.55247592 4.65517165 -9.3125 3.5 C-8.28576172 2.52546875 -8.28576172 2.52546875 -7.23828125 1.53125 C-4.56636781 -0.29665588 -3.17390177 -0.38086821 0 0 Z M-6 5 C-5.67 6.65 -5.34 8.3 -5 10 C-4.34 9.67 -3.68 9.34 -3 9 C-3.33 7.68 -3.66 6.36 -4 5 C-4.66 5 -5.32 5 -6 5 Z " fill="#000000" transform="translate(48,21)"/>
<path d="M0 0 C2.31534108 1.83002941 4.04451762 3.75834947 6 6 C4.375 11.75 4.375 11.75 1 14 C-2.83693587 14.41857482 -5.11203064 14.54644269 -8.4375 12.5 C-10.78057502 8.75107996 -10.48773804 6.38964238 -10 2 C-7.75639224 -2.35523859 -4.17730263 -1.20362957 0 0 Z M-3 4 C-3.33 5.32 -3.66 6.64 -4 8 C-3.01 8 -2.02 8 -1 8 C-1 6.68 -1 5.36 -1 4 C-1.66 4 -2.32 4 -3 4 Z " fill="#000000" transform="translate(23,22)"/>
<path d="M0 0 C0.66 0 1.32 0 2 0 C4.35198072 3.23397349 6.20893495 6.41786991 8 10 C6.02 12.31 4.04 14.62 2 17 C-2.0084034 14.9957983 -3.41409657 13.50944037 -6 10 C-4.34643078 6.41726669 -2.32019297 3.19026533 0 0 Z " fill="#000000" transform="translate(31,30)"/>
</svg>
