<?xml version="1.0" encoding="UTF-8"?>
<svg version="1.1" xmlns="http://www.w3.org/2000/svg" width="32" height="32">
<path d="M0 0 C0.92619141 0.12568359 0.92619141 0.12568359 1.87109375 0.25390625 C7.07026293 0.87907271 11.66091638 0.91895175 16.8359375 0.1875 C19.08735134 -0.00756835 21.01933437 0.16581788 23.25 0.5 C26.62008121 0.94934416 28.77212932 0.90783863 32 0 C31.45276317 3.37462715 30.9451 5.08235 29 8 C29.33 9.11375 29.66 10.2275 30 11.375 C31.08269165 15.29975724 30.9002052 16.51629046 29 20 C29.66 20 30.32 20 31 20 C31 21.65 31 23.3 31 25 C29.10807525 25.98669759 27.21128022 26.9640602 25.3125 27.9375 C24.25675781 28.48277344 23.20101563 29.02804688 22.11328125 29.58984375 C19.29923215 30.86446323 17.06808254 31.73252614 14 32 C11.125 30.25 11.125 30.25 8 28 C5.69992174 26.8870589 3.37479452 25.94991781 1 25 C1 23.35 1 21.7 1 20 C1.66 20 2.32 20 3 20 C2.443125 18.453125 2.443125 18.453125 1.875 16.875 C0.92463494 12.66624045 1.29730429 10.87836244 3 7 C2.505 6.5875 2.01 6.175 1.5 5.75 C0 4 0 4 0 0 Z M7 9 C7.33 9.66 7.66 10.32 8 11 C8.66 10.34 9.32 9.68 10 9 C9.01 9 8.02 9 7 9 Z M22 9 C23.485 9.99 23.485 9.99 25 11 C25 10.34 25 9.68 25 9 C24.01 9 23.02 9 22 9 Z M5 13 C6 15 6 15 6 15 Z M10 13 C11 15 11 15 11 15 Z M21 13 C22 15 22 15 22 15 Z M26 13 C27 15 27 15 27 15 Z M14 15 C15 17 15 17 15 17 Z M17 15 C18 17 18 17 18 17 Z M8 18 C9.98 18.99 9.98 18.99 12 20 C12.33 19.34 12.66 18.68 13 18 C11.35 18 9.7 18 8 18 Z M19 18 C19.66 18.66 20.32 19.32 21 20 C21.99 19.34 22.98 18.68 24 18 C22.35 18 20.7 18 19 18 Z M8 23 C8 23.33 8 23.66 8 24 C9.65 24 11.3 24 13 24 C13 23.67 13 23.34 13 23 C11.35 23 9.7 23 8 23 Z M19 23 C19 23.33 19 23.66 19 24 C20.65 24 22.3 24 24 24 C24 23.67 24 23.34 24 23 C22.35 23 20.7 23 19 23 Z " fill="#000000" transform="translate(0,0)"/>
</svg>
