<?xml version="1.0" encoding="UTF-8"?>
<svg version="1.1" xmlns="http://www.w3.org/2000/svg" width="256" height="256">
<path d="M0 0 C4.17222791 1.88531154 7.99639132 4.26397485 11.875 6.6875 C32.41841912 19.37389316 32.41841912 19.37389316 56 20 C60.97032386 18.60164358 65.65299071 16.57884155 70.390625 14.54296875 C97.81981792 3.01687173 127.88094425 1.87612754 156 12 C159.52511377 13.43934185 162.98174843 15.02059068 166.44287109 16.60620117 C176.96759417 21.34934657 187.52676518 22.52707343 198.4609375 18.42578125 C204.63692751 15.87091349 210.42518502 12.62575833 216.23510742 9.34448242 C218.08758061 8.29833624 219.94468144 7.26080781 221.80273438 6.22460938 C227.22146522 3.53773842 227.22146522 3.53773842 232 0 C239.03846154 -0.57692308 239.03846154 -0.57692308 242.5 1.5 C245.24431834 6.07386389 244.42514642 10.05287969 243.33984375 15.0234375 C238.78144194 31.63891078 229.23562933 41.33707672 214.55273438 49.7421875 C212.88694336 50.67417969 212.88694336 50.67417969 211.1875 51.625 C210.08857422 52.2540625 208.98964844 52.883125 207.85742188 53.53125 C197.60935639 59.35277924 187.70389118 64.90560235 176.25 67.875 C155.25146376 73.76262596 136.25365762 85.4097695 123.3046875 103.22265625 C121.0299893 106.32142176 120.30819212 106.94154977 116.375 107.6875 C113.39232192 107.61738279 112.25142019 107.21134562 109.94140625 105.26953125 C107.86032315 102.91259309 105.91316796 100.49492719 104 98 C91.15036506 81.73424259 74.04759302 73.2475468 54.54370117 67.63061523 C45.71202796 65.03818304 37.98191612 61.53449445 30 57 C29.1239209 56.51192871 28.2478418 56.02385742 27.34521484 55.52099609 C10.17860342 45.91506711 -4.94835693 37.26926527 -10.9375 17.25 C-13.44184179 6.40306964 -13.44184179 6.40306964 -10.5 1.5 C-6.94328073 -0.63403156 -3.98237951 -0.76596509 0 0 Z " fill="#000000" transform="translate(12,0)"/>
<path d="M0 0 C2.84808683 2.82404134 5.55544946 5.62120093 8.0625 8.75 C21.70471121 24.32436988 41.77146978 32.42646427 61.9375 34.875 C71.49994407 35.43596193 81.41729616 34.04054024 90.625 31.5 C93.4342042 30.87043302 94.4621516 30.69023327 96.98046875 32.140625 C98.8125 33.75 98.8125 33.75 100.33203125 35.421875 C104.77565083 39.62614271 110.2074852 39.4198588 115.98828125 39.3203125 C120.26661289 38.8652889 123.54571369 37.54361083 127 35 C127.88365234 33.90365234 127.88365234 33.90365234 128.78515625 32.78515625 C131 31 131 31 134.21484375 31.23046875 C135.44332031 31.54628906 136.67179688 31.86210937 137.9375 32.1875 C139.2917106 32.50284839 140.64721953 32.81266804 142.00390625 33.1171875 C142.67953613 33.27155273 143.35516602 33.42591797 144.05126953 33.58496094 C163.74709526 37.77976221 185.23721758 32.77232099 202 22 C205.11117037 19.78916832 208.06789151 17.44156563 211 15 C211.61617187 14.51789063 212.23234375 14.03578125 212.8671875 13.5390625 C217.15218806 10.0920176 220.36093325 6.18222971 223.6171875 1.7578125 C224.07351562 1.17773438 224.52984375 0.59765625 225 0 C225.33 0 225.66 0 226 0 C226.09889038 6.05056995 226.17147918 12.10066935 226.21972656 18.15185547 C226.23983969 20.21020705 226.26713397 22.26850152 226.30175781 24.32666016 C226.35028883 27.28562513 226.37297166 30.24383461 226.390625 33.203125 C226.41127014 34.12305237 226.43191528 35.04297974 226.45318604 35.99078369 C226.45542167 42.3589008 226.45542167 42.3589008 224.17480469 45.56933594 C221.1279034 47.57369623 218.6251903 47.70285325 215 48 C182.45942374 51.25065182 149.56259597 63.08679188 126.7109375 87.45703125 C125.86317749 88.35083496 125.86317749 88.35083496 124.99829102 89.26269531 C123.90041847 90.43481934 122.82146785 91.62505221 121.76538086 92.83496094 C119.10288082 95.69028472 117.04904278 97.42511079 113.078125 97.828125 C107.65130236 97.38402409 104.85941828 93.5488237 101.4375 89.6875 C78.47977979 65.35134926 47.57533993 51.32895956 14.33032227 48.68237305 C9.48970441 48.27920387 5.29923645 47.85765216 1.38749695 44.69718933 C-0.36674416 42.55139774 -0.36473306 41.45799151 -0.34057617 38.7121582 C-0.34034958 37.85149246 -0.34012299 36.99082672 -0.33988953 36.1040802 C-0.31666374 34.71644722 -0.31666374 34.71644722 -0.29296875 33.30078125 C-0.28872391 32.35059616 -0.28447906 31.40041107 -0.28010559 30.4214325 C-0.26330484 27.38483412 -0.22564992 24.34889798 -0.1875 21.3125 C-0.17245497 19.25456687 -0.15876625 17.19662335 -0.14648438 15.13867188 C-0.11339671 10.09219252 -0.06160462 5.04620856 0 0 Z " fill="#000000" transform="translate(15,159)"/>
<path d="M0 0 C7.17074851 2.91851033 10.78688243 11.07163133 13.75 17.8125 C21.05262982 36.75595557 20.88367203 54.89111394 13.5625 73.69140625 C6.31298802 89.56714042 -6.63866985 101.48878198 -22.43359375 108.67578125 C-31.57158184 112.06874726 -39.62237134 113.44529669 -49.375 113.25 C-50.95474609 113.24226563 -50.95474609 113.24226563 -52.56640625 113.234375 C-57.19392665 113.18745464 -61.47149187 113.01904196 -66 112 C-63.89883223 107.43224398 -61.02395626 103.32731978 -58.27734375 99.1328125 C-55.90891413 95.53446373 -55.90891413 95.53446373 -54.1484375 91.62109375 C-53 90 -53 90 -49.9453125 89.34765625 C-48.68460938 89.25355469 -47.42390625 89.15945312 -46.125 89.0625 C-33.84751321 87.81706467 -23.26130765 83.15578017 -15.03125 73.75 C-6.62470159 62.63625803 -4.50964234 50.59286027 -6 37 C-7.51723473 28.82589791 -11.08542977 22.85394565 -16.1953125 16.375 C-17.7834413 14.284995 -18.87325588 12.35146599 -20 10 C-18.80761719 9.44570312 -17.61523438 8.89140625 -16.38671875 8.3203125 C-14.8202527 7.58866968 -13.25384974 6.85689179 -11.6875 6.125 C-10.90181641 5.76019531 -10.11613281 5.39539063 -9.30664062 5.01953125 C-8.54931641 4.66503906 -7.79199219 4.31054688 -7.01171875 3.9453125 C-5.96697388 3.45828857 -5.96697388 3.45828857 -4.90112305 2.96142578 C-2.759181 1.92576491 -2.759181 1.92576491 0 0 Z " fill="#000000" transform="translate(222,67)"/>
<path d="M0 0 C4.72084346 1.79751554 9.25206511 3.96137372 13.8125 6.125 C14.60076172 6.49753906 15.38902344 6.87007813 16.20117188 7.25390625 C18.13473705 8.16795524 20.06745388 9.08379842 22 10 C20.60637376 12.87058732 19.1162546 15.25319371 17.125 17.75 C8.48450796 29.10908588 6.77741012 41.06183532 8 55 C9.98550621 65.39249138 16.41409105 74.69824481 24.875 80.9375 C31.6663993 85.24524644 37.64915703 87.91631142 45.7434082 88.42089844 C54.09992322 89.01060262 54.09992322 89.01060262 57.046875 92.25 C58.5 95.0625 58.5 95.0625 59.7265625 98.03125 C61.42731578 101.9961963 63.93284061 104.93476375 66.6796875 108.22265625 C68 110 68 110 68 112 C49.76175144 116.07321568 31.1312329 113.15308108 15.03515625 103.98046875 C10.17398518 100.8085077 6.07111054 97.12007579 2 93 C1.29101562 92.31292969 0.58203125 91.62585938 -0.1484375 90.91796875 C-12.29043411 78.38054313 -17.70648219 60.5628758 -17.47070312 43.36279297 C-16.78958763 27.54134952 -11.17451039 11.44705942 0 0 Z " fill="#000000" transform="translate(32,67)"/>
<path d="M0 0 C13.0272279 7.07005333 24.16024163 15.865539 31.859375 28.6875 C33.04853224 33.231043 31.73620781 35.97953251 29.66015625 40.0234375 C24.47679594 48.57243176 17.62194433 54.20855943 7.859375 56.6875 C-1.16866114 57.85625501 -8.85832795 56.35447247 -16.36328125 51.14453125 C-21.90358899 46.61908362 -26.86637952 40.91663527 -28.140625 33.6875 C-28.98198835 22.79785433 -28.64905945 14.42572446 -21.4609375 5.6328125 C-14.92399533 -1.3689789 -9.27163795 -3.87471437 0 0 Z M-5.140625 18.6875 C-5.77496832 22.27772178 -5.77496832 22.27772178 -5.640625 26.1875 C-5.6509375 27.4971875 -5.66125 28.806875 -5.671875 30.15625 C-5.42388862 33.71654373 -5.42388862 33.71654373 -3.296875 36.125 C-1.16793673 37.91197264 -1.16793673 37.91197264 1.859375 38.1875 C5.6268971 37.55957965 6.56878536 36.71573716 8.859375 33.6875 C9.49371832 30.09727822 9.49371832 30.09727822 9.359375 26.1875 C9.3696875 24.8778125 9.38 23.568125 9.390625 22.21875 C9.14263862 18.65845627 9.14263862 18.65845627 7.015625 16.25 C4.88668673 14.46302736 4.88668673 14.46302736 1.859375 14.1875 C-1.9081471 14.81542035 -2.85003536 15.65926284 -5.140625 18.6875 Z " fill="#000000" transform="translate(81.140625,86.3125)"/>
<path d="M0 0 C6.8532915 3.56942265 13.1794741 10.04819517 15.56640625 17.53515625 C16.99938109 25.68116636 17.67825833 35.7901525 13 43 C7.29758476 50.59163005 1.53304647 56.06881195 -8 58 C-18.21284353 58.91346548 -26.28597783 57.30624334 -34.3125 50.75 C-39.6444529 45.67708934 -43.95439368 39.93231928 -44.46484375 32.3671875 C-43.46123158 27.25635578 -39.49311983 23.65453941 -36 20 C-35.195625 19.13375 -34.39125 18.2675 -33.5625 17.375 C-32.716875 16.59125 -31.87125 15.8075 -31 15 C-30.41347656 14.40832031 -29.82695312 13.81664063 -29.22265625 13.20703125 C-24.67659679 8.83028499 -19.86527727 5.48998585 -14.375 2.4375 C-13.44324951 1.89935669 -13.44324951 1.89935669 -12.49267578 1.3503418 C-7.93972892 -1.06716811 -4.95939856 -1.24885581 0 0 Z M-21 20 C-21.63434332 23.59022178 -21.63434332 23.59022178 -21.5 27.5 C-21.5103125 28.8096875 -21.520625 30.119375 -21.53125 31.46875 C-21.28326362 35.02904373 -21.28326362 35.02904373 -19.15625 37.4375 C-17.02731173 39.22447264 -17.02731173 39.22447264 -14 39.5 C-10.2324779 38.87207965 -9.29058964 38.02823716 -7 35 C-6.36565668 31.40977822 -6.36565668 31.40977822 -6.5 27.5 C-6.4896875 26.1903125 -6.479375 24.880625 -6.46875 23.53125 C-6.71673638 19.97095627 -6.71673638 19.97095627 -8.84375 17.5625 C-10.97268827 15.77552736 -10.97268827 15.77552736 -14 15.5 C-17.7675221 16.12792035 -18.70941036 16.97176284 -21 20 Z " fill="#000000" transform="translate(187,85)"/>
<path d="M0 0 C0.99 0.33 1.98 0.66 3 1 C3.88671875 3.1171875 3.88671875 3.1171875 4.6875 5.875 C8.74234337 17.65699772 16.31783396 25.52602669 27.296875 31.18359375 C27.85890625 31.45300781 28.4209375 31.72242188 29 32 C25.69656641 41.24629401 18.62640713 48.67682927 11.98046875 55.7109375 C9.98890566 58.01282304 8.56081255 60.39715501 7 63 C3.87057535 64.56471233 0.38917777 64.69701958 -3 64 C-5.83032954 61.57861541 -8.02077259 58.78299963 -10.25 55.8125 C-12.72843881 52.55755461 -15.32418246 49.54299263 -18.125 46.5625 C-22.12761201 42.15495448 -24.63955363 37.43583563 -27 32 C-26.00419922 31.41992188 -26.00419922 31.41992188 -24.98828125 30.828125 C-11.7309382 23.00919567 -5.39599984 14.47222077 0 0 Z " fill="#000000" transform="translate(127,121)"/>
</svg>
